<?xml version="1.0" encoding="UTF-8"?>
<svg version="1.1" xmlns="http://www.w3.org/2000/svg" width="455" height="405">
<path d="M0 0 C150.15 0 300.3 0 455 0 C455 133.65 455 267.3 455 405 C304.85 405 154.7 405 0 405 C0 271.35 0 137.7 0 0 Z " fill="#FE4F15" transform="translate(0,0)"/>
<path d="M0 0 C3.13986019 2.67714395 6.15321871 5.4702962 9.140625 8.31640625 C12.00970457 11.00910798 14.9558491 13.50974047 18 16 C18.86882812 15.09636719 19.73765625 14.19273438 20.6328125 13.26171875 C21.79646566 12.06991269 22.96055116 10.87852865 24.125 9.6875 C24.97964844 8.79514648 24.97964844 8.79514648 25.8515625 7.88476562 C30.29043263 3.37023294 34.72820711 -0.40116293 41.375 -0.5 C46.5524687 -0.29918755 50.16493862 1.58047575 54 5 C57.59832331 9.08485717 58.73927092 13.35440717 58.4296875 18.75390625 C56.72974393 27.63997493 48.25502788 34.04074402 42 40 C45.18757932 43.82509519 48.40348816 47.43064828 52 50.875 C56.04798354 54.89985221 59.17226505 59.04548975 62 64 C62.48855469 64.80179687 62.97710937 65.60359375 63.48046875 66.4296875 C69.00506432 77.10747726 68.84884971 91.30690501 66.078125 102.8359375 C64.92368 105.75203559 63.63027195 108.32446134 62 111 C61.54238281 111.80179687 61.08476562 112.60359375 60.61328125 113.4296875 C55.42741623 121.86915003 48.64158068 128.21955111 40 133 C40.72316406 134.30324219 40.72316406 134.30324219 41.4609375 135.6328125 C42.40839844 137.36144531 42.40839844 137.36144531 43.375 139.125 C44.00148438 140.26195312 44.62796875 141.39890625 45.2734375 142.5703125 C48.14601073 148.27646474 49.49384833 153.65544771 50 160 C50.06574219 160.64324219 50.13148438 161.28648437 50.19921875 161.94921875 C50.94243317 175.40396248 45.73995417 187.76588732 37.37890625 197.98046875 C28.30597721 207.83667224 16.07084889 213.96408153 2.75488281 214.52124023 C-10.72429638 214.73271269 -21.23279593 211.21593885 -32 203 C-32.62132812 202.53078125 -33.24265625 202.0615625 -33.8828125 201.578125 C-35.30907408 200.45038328 -36.66394557 199.23328101 -38 198 C-38 197.34 -38 196.68 -38 196 C-38.99 195.67 -39.98 195.34 -41 195 C-42.68732277 193.01739574 -44.35366057 191.0167658 -46 189 C-46.99 188.34 -47.98 187.68 -49 187 C-49 186.34 -49 185.68 -49 185 C-49.99 184.67 -50.98 184.34 -52 184 C-54.1875 182.0625 -54.1875 182.0625 -56 180 C-56 179.34 -56 178.68 -56 178 C-57.32 177.34 -58.64 176.68 -60 176 C-60 175.34 -60 174.68 -60 174 C-60.99 173.67 -61.98 173.34 -63 173 C-65.1875 171.0625 -65.1875 171.0625 -67 169 C-67 168.34 -67 167.68 -67 167 C-67.99 166.67 -68.98 166.34 -70 166 C-71.84499398 164.12382302 -73.3683599 162.07262391 -75 160 C-79.22765056 160.47872676 -81.48476888 163.08065854 -84.31933594 165.97875977 C-84.83685928 166.49584503 -85.35438263 167.0129303 -85.8875885 167.54568481 C-87.59372597 169.25390966 -89.28899592 170.97250895 -90.984375 172.69140625 C-92.16627559 173.87890296 -93.34884096 175.06573835 -94.53204346 176.25193787 C-97.64252102 179.3738629 -100.74388392 182.50469244 -103.84344482 185.63745117 C-107.00867181 188.83338097 -110.18242168 192.0208219 -113.35546875 195.20898438 C-119.57869148 201.46436954 -125.79231978 207.72919325 -132 214 C-130.58914882 217.20920216 -128.90984731 219.32172432 -126.41162109 221.76782227 C-125.67680511 222.49280411 -124.94198914 223.21778595 -124.18490601 223.96473694 C-123.3891214 224.74078781 -122.59333679 225.51683868 -121.7734375 226.31640625 C-120.08450624 227.98489529 -118.39570851 229.65351951 -116.70703125 231.32226562 C-114.0503155 233.93572115 -111.39118111 236.54664885 -108.72900391 239.15454102 C-106.15378735 241.6809645 -103.58826452 244.21694183 -101.0234375 246.75390625 C-100.23979828 247.51578751 -99.45615906 248.27766876 -98.64877319 249.06263733 C-87.59839405 260.01505238 -77.79399928 272.52102626 -77.48095703 288.59863281 C-77.48724121 289.47358398 -77.49352539 290.34853516 -77.5 291.25 C-77.50499512 292.1687793 -77.50999023 293.08755859 -77.51513672 294.03417969 C-77.86420928 307.73226851 -83.90671139 319.7708091 -93.8125 329.234375 C-104.37202563 337.75742069 -113.75214508 341.35913883 -127.25 341.375 C-128.33152344 341.39949219 -129.41304687 341.42398437 -130.52734375 341.44921875 C-140.21362121 341.48427162 -147.45771644 338.88372109 -155.625 333.75 C-156.46289062 333.22921875 -157.30078125 332.7084375 -158.1640625 332.171875 C-159.07285156 331.59179688 -159.07285156 331.59179688 -160 331 C-160.22945312 331.86753906 -160.45890625 332.73507812 -160.6953125 333.62890625 C-162.15743782 337.40679293 -164.15152431 340.01949033 -166.875 342.9375 C-167.3582373 343.45820068 -167.84147461 343.97890137 -168.33935547 344.51538086 C-176.50745745 352.95505321 -187.55638224 358.90820437 -199.41015625 359.3984375 C-201.29427065 359.40629343 -203.17851338 359.39830705 -205.0625 359.375 C-206.00416016 359.38660156 -206.94582031 359.39820313 -207.91601562 359.41015625 C-224.93187847 359.33910881 -236.65876595 348.33452137 -248.125 336.9375 C-249.0860248 335.9609748 -250.04552077 334.98292397 -251 334 C-254.70326271 337.09864839 -258.23052093 340.19189696 -261.5625 343.6875 C-265.6838167 347.81795487 -269.41344503 350.09221139 -275.3125 350.5625 C-280.94828443 350.3622437 -284.89360987 347.69830167 -289 344 C-291.9795971 339.93691304 -292.36102777 336.33079466 -292.49609375 331.44140625 C-291.13025396 324.71975374 -286.53469809 320.12398849 -281.75 315.5625 C-280.91855469 314.75135742 -280.91855469 314.75135742 -280.0703125 313.92382812 C-278.72039051 312.60881791 -277.36115972 311.30337464 -276 310 C-279.04464478 306.36127819 -282.08820662 302.86031365 -285.5 299.5625 C-295.73802403 289.41487795 -301.86010502 276.58088954 -302.375 262 C-301.7867565 246.68115877 -294.78596807 234.5233532 -284 224 C-280.80786617 221.2024564 -278.02117163 219.37868742 -274 218 C-274.47050781 217.10539063 -274.94101562 216.21078125 -275.42578125 215.2890625 C-282.96135658 200.76668734 -286.95751288 187.25754508 -282.3125 171 C-277.77676876 158.16719941 -268.88196479 147.70756077 -257 141 C-253.39259921 139.44247394 -249.75169631 138.1610907 -246 137 C-245.01 136.67 -244.02 136.34 -243 136 C-225.94735262 134.55660784 -212.57919597 138.53532663 -199.13031006 149.19866943 C-191.13875019 155.9561088 -183.94586043 163.66149045 -176.625 171.125 C-174.81083963 172.95926726 -172.99574208 174.79260812 -171.1796875 176.625 C-166.77560474 181.07271855 -162.38319771 185.53170289 -158 190 C-154.16533673 188.41221603 -151.69477757 185.97333089 -148.7565918 183.07885742 C-148.24721573 182.57941116 -147.73783966 182.0799649 -147.21302795 181.56538391 C-145.53616491 179.91764415 -143.86710915 178.26228754 -142.19921875 176.60546875 C-141.0366912 175.45444849 -139.87415961 174.30343232 -138.71162415 173.15242004 C-136.27937066 170.74114848 -133.85178517 168.325275 -131.42651367 165.90698242 C-128.31480716 162.80627602 -125.18496854 159.72457169 -122.05049419 156.64690685 C-119.64445198 154.27805791 -117.25187863 151.89595172 -114.86283302 149.50997353 C-113.71429433 148.3674962 -112.56074573 147.23003286 -111.40219688 146.09770775 C-109.78582106 144.51535325 -108.18934882 142.91524949 -106.59643555 141.30932617 C-105.68250534 140.40268723 -104.76857513 139.49604828 -103.82695007 138.56193542 C-101.71780664 136.15087995 -101.71780664 136.15087995 -102.08381653 133.25019836 C-102.81202685 130.84002612 -102.81202685 130.84002612 -105.0625 129.6875 C-106.0215625 129.3471875 -106.0215625 129.3471875 -107 129 C-107 128.34 -107 127.68 -107 127 C-107.598125 126.731875 -108.19625 126.46375 -108.8125 126.1875 C-110.99847854 125.00082594 -112.41332594 123.90400887 -114 122 C-114 121.34 -114 120.68 -114 120 C-114.99 119.67 -115.98 119.34 -117 119 C-118.68732277 117.01739574 -120.35366057 115.0167658 -122 113 C-122.99 112.34 -123.98 111.68 -125 111 C-125 110.34 -125 109.68 -125 109 C-125.53109375 108.79246094 -126.0621875 108.58492188 -126.609375 108.37109375 C-129.97536558 106.44059915 -132.54040984 103.79923721 -135.25 101.0625 C-135.82484131 100.48274414 -136.39968262 99.90298828 -136.99194336 99.30566406 C-144.28679585 91.81105084 -150.39642464 83.90091251 -154 74 C-154.35578125 73.13503906 -154.7115625 72.27007812 -155.078125 71.37890625 C-157.69997047 61.76917604 -157.83387831 48.08563454 -153.25390625 39.1171875 C-152.84011719 38.41851562 -152.42632812 37.71984375 -152 37 C-151.57589844 36.17757812 -151.15179688 35.35515625 -150.71484375 34.5078125 C-143.96162732 22.13005092 -133.14011807 13.36014173 -119.6875 9.0625 C-105.19707319 5.7265744 -91.4840838 8.33961828 -78.8046875 15.8515625 C-77.18925552 16.87956467 -75.59319902 17.93786732 -74 19 C-73.75507813 18.113125 -73.51015625 17.22625 -73.2578125 16.3125 C-69.35813825 6.04255042 -58.55040178 -1.64420696 -48.87109375 -6.19140625 C-33.13071403 -12.99361627 -13.56301356 -10.60697214 0 0 Z " fill="#FEFDFD" transform="translate(351,30)"/>
<path d="M0 0 C2.81444981 1.75121321 5.36176866 3.51550966 7.8125 5.75 C7.8125 6.41 7.8125 7.07 7.8125 7.75 C8.8025 8.08 9.7925 8.41 10.8125 8.75 C12.52134005 10.37339805 14.18696717 12.04319053 15.8125 13.75 C16.410625 14.306875 17.00875 14.86375 17.625 15.4375 C18.8125 16.75 18.8125 16.75 18.8125 18.75 C19.8025 19.08 20.7925 19.41 21.8125 19.75 C21.8125 20.41 21.8125 21.07 21.8125 21.75 C23.1325 22.41 24.4525 23.07 25.8125 23.75 C25.8125 24.41 25.8125 25.07 25.8125 25.75 C27.1325 26.41 28.4525 27.07 29.8125 27.75 C29.8125 28.41 29.8125 29.07 29.8125 29.75 C31.2975 30.245 31.2975 30.245 32.8125 30.75 C32.8125 31.41 32.8125 32.07 32.8125 32.75 C34.1325 33.41 35.4525 34.07 36.8125 34.75 C36.8125 35.41 36.8125 36.07 36.8125 36.75 C38.2975 37.245 38.2975 37.245 39.8125 37.75 C41.52288811 39.37176696 43.1811075 41.04879041 44.8125 42.75 C45.91983503 43.84064322 47.0306843 44.92772684 48.14453125 46.01171875 C49.30474929 47.15358306 50.46490471 48.29551099 51.625 49.4375 C52.22248047 50.01822266 52.81996094 50.59894531 53.43554688 51.19726562 C54.93264673 52.67725576 56.37738731 54.20982782 57.8125 55.75 C57.8125 56.41 57.8125 57.07 57.8125 57.75 C58.36755722 57.98072205 58.92261444 58.21144409 59.49449158 58.44915771 C62.44705855 60.10610768 64.49902724 62.17432868 66.90063477 64.56347656 C67.39383209 65.05156296 67.88702942 65.53964935 68.39517212 66.04252625 C70.01994415 67.65342767 71.63720919 69.27162244 73.25390625 70.890625 C74.3842156 72.01704557 75.51474772 73.14324265 76.64549255 74.26922607 C79.01342233 76.62969873 81.37744511 78.99400371 83.73901367 81.36083984 C86.75899405 84.38660913 89.79017242 87.40087351 92.82463169 90.41211319 C95.16251158 92.7352268 97.493391 95.0652675 99.82234001 97.39733124 C100.93671 98.51118931 102.05343283 99.6226988 103.17257881 100.73175812 C104.74027382 102.28705237 106.29804775 103.8516768 107.85375977 105.41894531 C108.74104263 106.30559875 109.6283255 107.1922522 110.54249573 108.10577393 C114.87791037 113.15590382 116.48843895 117.66657784 116.30078125 124.21484375 C115.29099124 129.4576735 111.79248278 132.90656776 108 136.4375 C105.09279113 138.18182532 102.93980867 138.25247674 99.5625 138.3125 C97.94601563 138.37630859 97.94601563 138.37630859 96.296875 138.44140625 C86.86568818 136.5699712 79.64296608 126.88822371 73.10058594 120.29882812 C71.29586564 118.48326571 69.4805414 116.6787899 67.6640625 114.875 C66.51498212 113.72460012 65.36652115 112.57358113 64.21875 111.421875 C63.67512817 110.88230164 63.13150635 110.34272827 62.57141113 109.7868042 C58.8125 105.97999228 58.8125 105.97999228 58.8125 103.75 C58.049375 103.46125 57.28625 103.1725 56.5 102.875 C53.8125 101.75 53.8125 101.75 50.8125 99.75 C45.86262051 98.82250779 41.7801776 99.3848725 37.4375 101.9375 C34.25576747 104.22555865 32.13124339 105.95861275 30.8125 109.75 C29.92004955 117.02516572 30.59660538 121.77748262 34.8125 127.75 C35.555 128.6575 36.2975 129.565 37.0625 130.5 C39.60954594 135.23022818 39.58902124 139.48691156 38.8125 144.75 C36.62723658 149.20146251 33.8730479 151.93885145 29.8125 154.75 C27.05467413 155.66927529 25.00145849 156.0384841 22.125 156.1875 C21.31675781 156.24808594 20.50851563 156.30867187 19.67578125 156.37109375 C10.95136782 154.47862208 3.91785058 145.18232265 -2.14453125 139.12890625 C-3.17952148 138.10035798 -4.21465497 137.07195385 -5.24992371 136.04368591 C-7.40575622 133.89975322 -9.55749288 131.75180462 -11.70678711 129.60131836 C-14.45143321 126.85646829 -17.20963262 124.12568463 -19.97148609 121.3981638 C-22.10855269 119.28339471 -24.23640619 117.15953611 -26.36182213 115.03306389 C-27.37482786 114.02240542 -28.39104877 113.01495828 -29.41062355 112.0109272 C-40.18694081 101.38377921 -40.18694081 101.38377921 -41.62109375 93.30859375 C-41.63092997 87.96752501 -40.79124945 84.93814125 -37.1875 80.75 C-32.68357468 76.68548202 -29.42551229 75.43438371 -23.30078125 75.53515625 C-18.35480213 76.03798222 -14.68631476 78.30324204 -11 81.4375 C-6.93929571 84.4532375 -3.0018384 84.46128894 1.93359375 84.2265625 C6.25918846 83.51052104 9.0011878 82.12685314 11.8125 78.75 C14.66035539 74.1854931 15.50340188 69.36438278 14.54223633 64.07470703 C11.57038428 54.60733492 -1.16937528 45.73318373 -8.16186523 38.87158203 C-9.89753817 37.16625052 -11.6268177 35.4546325 -13.35546875 33.7421875 C-13.88158249 33.22953339 -14.40769623 32.71687927 -14.94975281 32.18869019 C-18.87833468 28.28678144 -22.72506516 24.36139674 -23.71875 18.75 C-23.65480513 12.61129269 -23.54982566 8.46602774 -19.1875 3.75 C-13.39841006 -1.47430068 -7.31614935 -2.86907818 0 0 Z " fill="#FF5314" transform="translate(124.1875,200.25)"/>
<path d="M0 0 C1.26070312 -0.03867187 1.26070312 -0.03867187 2.546875 -0.078125 C8.46404546 0.64014425 12.38100714 4.00571783 16.47338867 8.10107422 C16.95712448 8.58115936 17.44086029 9.06124451 17.93925476 9.55587769 C19.52295934 11.13153166 21.09562342 12.71770436 22.66796875 14.3046875 C23.77270741 15.40994538 24.87796596 16.51468383 25.98371887 17.618927 C28.29395367 19.92925128 30.59895558 22.24463308 32.90014648 24.56396484 C35.84383487 27.53035257 38.79848174 30.48552618 41.75690746 33.43720818 C44.03844492 35.7153978 46.314953 37.99855897 48.58989906 40.28332901 C49.67738333 41.3746505 50.76620487 42.46464119 51.85640526 43.55324936 C53.3808663 45.07733784 54.898642 46.60778882 56.41479492 48.14013672 C57.27828049 49.00822968 58.14176605 49.87632263 59.03141785 50.77072144 C63.45828322 55.71776945 64.81547364 59.21598702 64.6015625 65.75 C63.88000714 70.88106035 61.48518068 74.10519839 57.6875 77.625 C53.06715427 80.70523049 48.63149611 80.76691901 43.25 80.25 C38.93176856 78.58914175 35.8183662 76.14326989 32.25 73.25 C27.13147237 71.54382412 21.12479305 71.00391165 16.078125 73.19140625 C12.53545436 75.60617534 9.84693654 78.21068992 8.25 82.25 C7.52101179 88.60261151 8.6929875 92.93728262 12.25 98.25 C13.87836738 99.9541054 15.53769752 101.63025441 17.25 103.25 C17.58 104.24 17.91 105.23 18.25 106.25 C19.57711925 106.92895266 20.91183613 107.59308319 22.25 108.25 C23.92265322 109.73721107 25.54412848 111.28276077 27.12890625 112.86328125 C28.04994141 113.78173828 28.97097656 114.70019531 29.91992188 115.64648438 C30.39486084 116.12561279 30.8697998 116.60474121 31.35913086 117.09838867 C32.80433641 118.55427607 34.2598625 119.99922023 35.71679688 121.44335938 C37.09641602 122.8268457 37.09641602 122.8268457 38.50390625 124.23828125 C39.34252197 125.07915283 40.1811377 125.92002441 41.04516602 126.78637695 C46.09853077 132.43287278 46.90309236 136.62081771 46.734375 144.078125 C46.0007163 148.88240619 43.96735604 151.28146389 40.25 154.25 C39.13625 155.2090625 39.13625 155.2090625 38 156.1875 C33.73794412 157.83420341 29.7539732 157.89030637 25.25 157.25 C22.125 155.6875 22.125 155.6875 19.25 153.25 C18.60160156 152.71761719 17.95320313 152.18523437 17.28515625 151.63671875 C14.13435162 148.99051226 11.20157822 146.33950916 8.625 143.125 C6.03962834 139.99533957 3.40127883 137.79784246 0.25 135.25 C-2.125 133.0625 -2.125 133.0625 -3.75 131.25 C-3.75 130.59 -3.75 129.93 -3.75 129.25 C-4.74 128.92 -5.73 128.59 -6.75 128.25 C-8.43732277 126.26739574 -10.10366057 124.2667658 -11.75 122.25 C-13.235 121.26 -13.235 121.26 -14.75 120.25 C-14.75 119.59 -14.75 118.93 -14.75 118.25 C-16.235 117.755 -16.235 117.755 -17.75 117.25 C-18.97224831 115.79651553 -20.1903436 114.33895523 -21.37109375 112.8515625 C-23.09178562 110.8530252 -25.09823687 109.29426045 -27.15625 107.65625 C-29.00267 106.02705588 -30.53467965 104.25446951 -32.125 102.375 C-35.14595396 98.82487672 -38.4061762 95.80534204 -41.94921875 92.78515625 C-44.00230462 91.03491168 -45.95626569 89.2679511 -47.75 87.25 C-47.75 86.59 -47.75 85.93 -47.75 85.25 C-48.74 84.92 -49.73 84.59 -50.75 84.25 C-52.9375 82.3125 -52.9375 82.3125 -54.75 80.25 C-54.75 79.59 -54.75 78.93 -54.75 78.25 C-56.07 77.59 -57.39 76.93 -58.75 76.25 C-58.75 75.59 -58.75 74.93 -58.75 74.25 C-59.74 73.92 -60.73 73.59 -61.75 73.25 C-62.96870952 71.80072381 -64.18338784 70.34743372 -65.359375 68.86328125 C-67.53602313 66.33812485 -70.18918274 64.37493347 -72.75 62.25 C-73.389375 61.445625 -74.02875 60.64125 -74.6875 59.8125 C-76.98042438 56.96371516 -79.50874317 54.85175701 -82.359375 52.58203125 C-82.81828125 52.14246094 -83.2771875 51.70289063 -83.75 51.25 C-83.75 50.59 -83.75 49.93 -83.75 49.25 C-84.74 48.92 -85.73 48.59 -86.75 48.25 C-88.1015625 46.7265625 -88.1015625 46.7265625 -89.375 44.875 C-90.01308594 43.96621094 -90.01308594 43.96621094 -90.6640625 43.0390625 C-93.11847763 38.99545772 -93.2213938 34.84172482 -92.75 30.25 C-90.89143173 24.98405656 -88.14685804 22.45604232 -83.75 19.25 C-78.68051191 17.56017064 -73.74225987 17.5588078 -68.6875 19.3125 C-64.73500011 21.91946801 -61.01659497 24.80929717 -57.75 28.25 C-57.75 28.91 -57.75 29.57 -57.75 30.25 C-56.91879639 30.59115845 -56.91879639 30.59115845 -56.07080078 30.93920898 C-53.07600295 32.63067433 -51.02633764 34.76782362 -48.6171875 37.22265625 C-48.13927765 37.70576767 -47.6613678 38.18887909 -47.16897583 38.68663025 C-45.64946386 40.22389041 -44.1368361 41.76769326 -42.625 43.3125 C-41.10515441 44.85997477 -39.58386581 46.40595926 -38.05960083 47.94908142 C-36.68081258 49.34570801 -35.30683935 50.74708323 -33.93310547 52.14868164 C-30.43425974 55.51644782 -28.21778777 55.43503573 -23.4375 55.5 C-22.30699219 55.52578125 -21.17648437 55.5515625 -20.01171875 55.578125 C-16.40595308 55.21538929 -14.62629711 54.4097459 -11.75 52.25 C-7.98972246 47.37180211 -6.96163488 43.26146417 -7.1484375 37.10546875 C-8.06863268 32.73752928 -10.36022345 29.7794997 -13.12109375 26.34375 C-16.58033522 21.8973389 -16.35544919 16.64017956 -15.75 11.25 C-12.42884893 4.60769786 -7.50476424 0.13645026 0 0 Z " fill="#FE4E1D" transform="translate(320.75,53.75)"/>
</svg>
